<svg width="22" height="24" viewBox="0 0 22 24" fill="none" xmlns="http://www.w3.org/2000/svg">
<g id="phone-black-18dp 1" clip-path="url(#clip0_4082_875)" filter="url(#filter0_d_4082_875)">
<path id="Vector" d="M15.996 11.1226L14.1579 10.9127C13.7164 10.862 13.2822 11.014 12.971 11.3252L11.6395 12.6568C9.59144 11.6147 7.91251 9.94296 6.87041 7.8877L8.20922 6.54888C8.5204 6.2377 8.67237 5.80349 8.62171 5.36205L8.41185 3.53836C8.325 2.80745 7.70988 2.25745 6.97173 2.25745H5.71976C4.902 2.25745 4.22175 2.93771 4.2724 3.75547C4.65595 9.93572 9.59868 14.8712 15.7717 15.2548C16.5894 15.3054 17.2697 14.6252 17.2697 13.8074V12.5555C17.2769 11.8245 16.7269 11.2094 15.996 11.1226Z" fill="#212121"/>
</g>
<defs>
<filter id="filter0_d_4082_875" x="-2" y="0" width="26" height="26" filterUnits="userSpaceOnUse" color-interpolation-filters="sRGB">
<feFlood flood-opacity="0" result="BackgroundImageFix"/>
<feColorMatrix in="SourceAlpha" type="matrix" values="0 0 0 0 0 0 0 0 0 0 0 0 0 0 0 0 0 0 127 0" result="hardAlpha"/>
<feOffset dy="4"/>
<feGaussianBlur stdDeviation="2"/>
<feComposite in2="hardAlpha" operator="out"/>
<feColorMatrix type="matrix" values="0 0 0 0 0 0 0 0 0 0 0 0 0 0 0 0 0 0 0.25 0"/>
<feBlend mode="normal" in2="BackgroundImageFix" result="effect1_dropShadow_4082_875"/>
<feBlend mode="normal" in="SourceGraphic" in2="effect1_dropShadow_4082_875" result="shape"/>
</filter>
<clipPath id="clip0_4082_875">
<rect width="18" height="18" fill="white" transform="translate(2)"/>
</clipPath>
</defs>
</svg>
